<svg xmlns="http://www.w3.org/2000/svg" width="30" height="30">
    <path fill="#FFF" fill-rule="evenodd" d="M29.506 18.142l-2.162.344-1.146 2.769 1.287 1.771c.169.233.144.555-.06.758l-3.631 3.635c-.204.203-.525.229-.759.06l-1.772-1.286-2.767 1.147-.343 2.163c-.045.285-.29.494-.579.495L12.437 30c-.289 0-.534-.209-.579-.494l-.344-2.162-2.769-1.146-1.771 1.287c-.233.169-.555.144-.759-.06l-3.634-3.631c-.204-.204-.229-.525-.06-.759l1.286-1.772-1.148-2.767-2.163-.343c-.284-.046-.494-.291-.494-.579L0 12.436c0-.288.209-.533.494-.578l2.162-.345 1.145-2.769-1.286-1.771c-.169-.233-.144-.554.059-.758l3.632-3.634c.204-.204.525-.23.758-.06l1.773 1.285 2.767-1.147.343-2.163c.045-.285.29-.494.578-.494L17.563 0c.288 0 .534.209.579.493l.344 2.162 2.769 1.146 1.771-1.287c.233-.169.555-.144.759.06l3.634 3.632c.204.203.229.525.06.758l-1.286 1.773 1.148 2.767 2.163.343c.284.045.494.29.494.578L30 17.563c0 .288-.209.534-.494.579zm-.68-5.216l-1.993-.316c-.201-.031-.371-.166-.449-.354l-1.399-3.373c-.078-.188-.053-.404.067-.569l1.185-1.633-2.927-2.924-1.631 1.185c-.165.12-.38.145-.569.067l-3.375-1.396c-.188-.078-.322-.248-.355-.45l-.317-1.991-4.137.001-.316 1.994c-.031.2-.166.37-.354.449L8.883 5.014c-.188.079-.403.053-.568-.067L6.681 3.763 3.757 6.689l1.185 1.632c.12.165.146.38.068.568l-1.397 3.375c-.078.189-.248.323-.449.355l-1.992.317.002 4.138 1.993.315c.201.032.371.166.449.354l1.399 3.374c.078.188.053.403-.067.568l-1.185 1.633 2.927 2.925 1.631-1.185c.102-.074.223-.112.345-.112.075 0 .152.014.224.044l3.375 1.397c.188.078.322.248.355.449l.317 1.991 4.137-.001.316-1.993c.031-.201.166-.372.354-.449l3.373-1.399c.188-.078.403-.053.568.067l1.634 1.184 2.924-2.926-1.185-1.632c-.12-.164-.146-.38-.068-.568l1.397-3.375c.078-.188.248-.323.449-.355l1.992-.317-.002-4.137zM14.992 24.493c-1.638 0-3.286-.423-4.773-1.29-.279-.163-.374-.522-.21-.802.163-.279.522-.373.801-.21 3.259 1.902 7.401 1.364 10.073-1.308 3.244-3.244 3.244-8.522 0-11.767-3.244-3.244-8.522-3.244-11.766 0-2.656 2.656-3.204 6.782-1.332 10.032.161.28.065.638-.215.8-.281.162-.639.065-.8-.215-2.136-3.709-1.512-8.415 1.518-11.446 3.701-3.7 9.723-3.7 13.424 0 3.701 3.702 3.701 9.724 0 13.425-1.829 1.829-4.263 2.781-6.72 2.781zm-5.876-3.611l.017.017c.23.228.232.599.004.829-.115.115-.266.173-.416.173-.149 0-.298-.056-.413-.169l-.019-.019c-.229-.229-.23-.6-.002-.829.228-.229.599-.23.829-.002zm10.775-9.119c-.174 0-.346-.077-.462-.225-.799-1.021-1.932-1.74-3.189-2.023-.316-.071-.514-.384-.443-.7.071-.316.385-.514.7-.443 1.52.342 2.889 1.21 3.855 2.443.2.255.155.624-.1.823-.107.084-.235.125-.361.125zm.834.761c.308-.099.638.07.738.378l.008.026c.099.308-.071.639-.379.737-.06.019-.12.028-.179.028-.248 0-.478-.159-.558-.408l-.007-.023c-.1-.308.069-.638.377-.738zM9.662 14.27c-1.008-.916-1.342-2.38-.832-3.641.074-.183.234-.316.427-.355.193-.039.392.021.531.16l.852.853c.18.18.473.18.653 0 .18-.18.18-.473 0-.653l-.85-.849c-.139-.139-.199-.339-.16-.532.04-.193.174-.353.357-.426 1.213-.486 2.595-.203 3.518.721.737.736 1.073 1.786.917 2.805l2.573 2.573c.972-.152 1.957.138 2.69.804 1.005.913 1.341 2.372.835 3.631-.073.183-.233.316-.426.356-.193.039-.393-.02-.532-.16l-.844-.844c-.18-.18-.472-.18-.652 0-.18.18-.18.472 0 .653l.846.846c.139.138.199.338.159.531-.039.192-.172.352-.354.426-.398.161-.813.238-1.224.238-.848 0-1.68-.331-2.304-.955-.738-.738-1.074-1.788-.917-2.808l-2.57-2.571c-.974.152-1.959-.137-2.693-.803zm2.883-.421c.153 0 .303.06.414.172l3.019 3.018c.148.148.205.363.151.566-.192.719.016 1.492.541 2.018.344.344.786.549 1.249.6l-.029-.029c-.637-.636-.637-1.673 0-2.31.637-.636 1.673-.636 2.31 0l.02.021c-.058-.492-.289-.961-.67-1.308-.524-.475-1.25-.65-1.943-.467-.202.054-.417-.004-.564-.152l-3.02-3.02c-.148-.147-.206-.363-.152-.565.191-.719-.016-1.491-.541-2.017-.341-.34-.778-.545-1.236-.598l.027.028c.637.637.637 1.673 0 2.31-.636.637-1.672.637-2.309 0l-.034-.034c.056.497.287.971.672 1.321.524.475 1.251.65 1.945.466.05-.014.1-.02.15-.02z"/>
</svg>
