<svg xmlns="http://www.w3.org/2000/svg" width="54" height="71">
    <path fill="#1085E4" fill-rule="evenodd" d="M53.996 35.689c0 1.027-.409 1.992-1.149 2.718l-.68.667c1.182 1.66 1.829 3.633 1.829 5.664 0 2.941-1.295 5.661-3.573 7.554v3.537h2.382v15.175H21.843V55.829h2.381v-2.097L11.415 41.224c-.113-.094-.197-.188-.27-.282-1.446-.942-2.402-2.551-2.402-4.375 0-1.951 1.104-3.638 2.719-4.544l-5.847-5.731-4.482-4.393c-1.527-1.5-1.527-3.938 0-5.438L15.795 2.088c1.528-1.5 4.017-1.5 5.547 0l4.482 4.393.945.927c1.001-1.107 2.446-1.776 4.004-1.776 2.954 0 5.359 2.357 5.359 5.253 0 .214-.022.422-.048.631.212-.026.426-.047.643-.047 2.955 0 5.359 2.357 5.359 5.253 0 .214-.021.421-.047.63.211-.025.426-.046.643-.046 2.954 0 5.358 2.356 5.358 5.253 0 .213-.021.421-.047.63.212-.026.426-.047.643-.047 2.954 0 5.359 2.357 5.359 5.253 0 1.526-.681 2.944-1.812 3.925l.664.65c.74.726 1.149 1.691 1.149 2.719zm-10.718 28.98v3.999h7.145V58.162H40.344c1.798 1.618 2.934 3.932 2.934 6.507zm-19.054 3.999h16.672v-3.999c0-3.588-2.978-6.507-6.637-6.507H24.224v10.506zm-13.1-32.101c0 1.609 1.335 2.918 2.977 2.918h11.908c1.643 0 2.978-1.309 2.978-2.918 0-1.611-1.335-2.918-2.978-2.918H14.101c-.05 0-.099.01-.148.017l-.494.055c-1.333.289-2.334 1.453-2.335 2.846zM19.659 3.74c-.15-.145-.323-.256-.508-.329-.083-.034-.177-.033-.265-.052-.212-.044-.422-.044-.634 0-.088.019-.182.018-.265.052-.185.073-.359.184-.508.329L2.817 18.112c-.6.59-.6 1.548 0 2.137l2.798 2.741L22.456 6.482 19.659 3.74zm5.884 5.768L24.14 8.133 7.297 24.641l6.807 6.673h11.905c2.955 0 5.359 2.356 5.359 5.253 0 2.895-2.404 5.252-5.359 5.252h-1.186l9.498 9.311c.601.591 1.581.589 2.18 0l14.14-13.862.521-.511c.601-.589.601-1.547 0-2.136l-1.12-1.097-5.954-5.837-.682-.669-5.272-5.168-.683-.669-5.272-5.168-.682-.668-5.954-5.837zm5.231-1.541c-.915 0-1.762.413-2.32 1.093l4.181 4.098c.695-.546 1.116-1.376 1.116-2.273 0-1.609-1.335-2.918-2.977-2.918zm5.953 5.836c-.913 0-1.761.413-2.318 1.093l4.181 4.099c.694-.547 1.116-1.377 1.116-2.273 0-1.61-1.337-2.918-2.979-2.919zm5.955 5.836c-.914 0-1.762.414-2.319 1.094l4.181 4.098c.694-.546 1.116-1.376 1.116-2.272 0-1.61-1.336-2.919-2.978-2.92zm5.954 5.837c-.914 0-1.761.413-2.319 1.093l4.181 4.099c.695-.546 1.116-1.376 1.116-2.273 0-1.61-1.336-2.918-2.978-2.919zm1.817 15.279L38.184 52.78c-.765.749-1.77 1.124-2.775 1.124-1.004 0-2.008-.375-2.774-1.124L21.454 41.818h-6.055L25.97 52.142c.104.076.161.118.214.164l.421.349v3.172h21.437v-4.68l.474-.35c1.969-1.453 3.098-3.66 3.098-6.059 0-1.413-.406-2.791-1.161-3.983zm-10.747-5.939c2.627 0 4.763 2.094 4.763 4.669 0 2.575-2.136 4.669-4.763 4.669-2.629 0-4.764-2.094-4.764-4.669 0-2.575 2.137-4.669 4.764-4.669zm0 7.003c1.313 0 2.381-1.047 2.381-2.334 0-1.288-1.068-2.335-2.381-2.335-1.314 0-2.382 1.047-2.382 2.335 0 1.287 1.068 2.334 2.382 2.334zM12.665 10.644c.465-.457 1.218-.457 1.684 0 .465.456.465 1.194 0 1.651l-2.382 2.334c-.232.227-.537.342-.842.342-.305 0-.61-.115-.842-.342-.466-.457-.466-1.194 0-1.65l2.382-2.335zm25.85 52.771c0 2.253-1.87 4.086-4.168 4.086-2.299 0-4.168-1.833-4.168-4.086s1.869-4.086 4.168-4.086c2.297 0 4.168 1.833 4.168 4.086zm-5.955 0c0 .966.802 1.751 1.787 1.751.984 0 1.786-.785 1.786-1.751 0-.965-.802-1.751-1.786-1.751-.985 0-1.787.786-1.787 1.751z"/>
</svg>
