<svg xmlns="http://www.w3.org/2000/svg" width="70" height="70">
    <path fill="#1085E4" fill-rule="evenodd" d="M68.899 40.816l-4.254.655c-2.403.369-4.418 1.92-5.39 4.15-.972 2.227-.739 4.759.625 6.773l2.315 3.419c.349.515.283 1.204-.157 1.644l-5.499 5.499c-.451.451-1.165.509-1.682.129l-2.443-1.79c-2.004-1.471-4.57-1.776-6.866-.83-2.296.951-3.892 2.985-4.27 5.442l-.46 2.994c-.096.632-.641 1.099-1.281 1.099h-7.778c-.621 0-1.156-.441-1.273-1.051l-.78-4.056c-.459-2.387-2.085-4.342-4.348-5.23-2.262-.892-4.783-.56-6.743.877l-3.473 2.546c-.517.38-1.23.322-1.683-.129l-5.498-5.499c-.44-.439-.506-1.13-.157-1.644l2.315-3.419c1.364-2.014 1.597-4.545.625-6.774-.971-2.229-2.987-3.78-5.389-4.149l-4.256-.654C.467 40.72 0 40.176 0 39.536v-7.777c0-.621.441-1.157 1.05-1.272l4.055-.78c2.387-.459 4.342-2.084 5.232-4.347.888-2.263.56-4.784-.878-6.744l-2.546-3.473c-.377-.517-.323-1.231.13-1.684l5.5-5.499c.439-.44 1.129-.504 1.644-.156l4.415 2.992c1.968 1.332 4.455 1.587 6.651.675 2.197-.909 3.776-2.847 4.226-5.182l1.007-5.237C30.603.44 31.138 0 31.759 0h7.778c.64 0 1.184.466 1.281 1.098l.654 4.254c.37 2.402 1.922 4.418 4.15 5.39 2.228.971 4.76.739 6.772-.625l3.419-2.315c.515-.348 1.204-.283 1.644.157l5.499 5.499c.452.453.508 1.168.129 1.682l-2.545 3.473c-1.439 1.962-1.767 4.483-.878 6.745.887 2.265 2.843 3.889 5.231 4.348l4.054.78c.612.116 1.053.652 1.053 1.273v7.777c0 .64-.467 1.184-1.101 1.28zm-1.492-7.986l-3.001-.576c-3.266-.627-5.941-2.851-7.155-5.946-1.216-3.096-.768-6.545 1.199-9.226l1.889-2.574-3.957-3.957-2.533 1.716c-2.753 1.862-6.215 2.184-9.263.854s-5.17-4.086-5.675-7.373l-.486-3.156H32.83l-.805 4.185c-.614 3.194-2.775 5.843-5.779 7.088-3.003 1.247-6.405.9-9.097-.925l-3.53-2.391-3.956 3.956 1.888 2.577c1.967 2.683 2.415 6.13 1.201 9.226-1.216 3.095-3.891 5.319-7.156 5.946l-3.003.577v5.594l3.155.485c3.286.506 6.042 2.627 7.372 5.675 1.33 3.047 1.01 6.511-.855 9.263l-1.716 2.533 3.957 3.956 2.575-1.889c2.681-1.963 6.132-2.415 9.223-1.2 3.096 1.216 5.32 3.89 5.948 7.157l.578 3.002h5.595l.29-1.892c.516-3.361 2.7-6.141 5.84-7.443 3.142-1.297 6.651-.877 9.393 1.134l1.545 1.132 3.956-3.956-1.715-2.533c-1.865-2.753-2.184-6.216-.855-9.263 1.33-3.049 4.086-5.17 7.372-5.676l3.156-.485V32.83zM35.648 49.259c-7.505 0-13.611-6.106-13.611-13.611 0-7.506 6.106-13.611 13.611-13.611 7.506 0 13.611 6.105 13.611 13.611 0 7.505-6.105 13.611-13.611 13.611zm0-24.63c-6.076 0-11.018 4.943-11.018 11.019 0 6.075 4.942 11.019 11.018 11.019 6.076 0 11.019-4.944 11.019-11.019 0-6.076-4.943-11.019-11.019-11.019zm0 18.149c-3.932 0-7.13-3.2-7.13-7.13 0-3.931 3.198-7.13 7.13-7.13s7.13 3.199 7.13 7.13c0 3.93-3.198 7.13-7.13 7.13zm0-11.668c-2.502 0-4.537 2.036-4.537 4.538 0 2.501 2.035 4.537 4.537 4.537s4.537-2.036 4.537-4.537c0-2.502-2.035-4.538-4.537-4.538z"/>
</svg>
