<svg xmlns="http://www.w3.org/2000/svg" width="55" height="70">
    <path fill="#1085E4" fill-rule="evenodd" d="M0 69.999v-70h37.931L55 17.016v52.983H0zM38.617 3.983v12.35h12.388L38.617 3.983zm14.042 14.683H36.277V2.333H2.34v65.333h50.319v-49zM11.702 17.5h10.532c.646 0 1.17.521 1.17 1.166 0 .646-.524 1.167-1.17 1.167H11.702c-.646 0-1.17-.521-1.17-1.167 0-.645.524-1.166 1.17-1.166zm0 9.333h5.851c.646 0 1.17.522 1.17 1.167s-.524 1.166-1.17 1.166h-5.851c-.646 0-1.17-.521-1.17-1.166 0-.645.524-1.167 1.17-1.167zm.831 8.505c.211.221.339.524.339.828 0 .304-.128.607-.339.829-.222.21-.527.338-.831.338-.304 0-.608-.128-.831-.338-.21-.222-.339-.525-.339-.829 0-.316.129-.607.339-.828.433-.432 1.229-.432 1.662 0zm-.831 7.828h19.894c.646 0 1.17.522 1.17 1.167s-.524 1.167-1.17 1.167H11.702c-.646 0-1.17-.522-1.17-1.167s.524-1.167 1.17-1.167zm.831 8.517c.211.209.339.501.339.817 0 .303-.128.606-.339.828-.222.21-.515.338-.831.338-.304 0-.608-.128-.831-.338-.222-.222-.339-.513-.339-.828 0-.316.129-.618.339-.829.445-.431 1.229-.431 1.662.012zm5.02-.35h11.702c.646 0 1.17.521 1.17 1.167 0 .645-.524 1.166-1.17 1.166H17.553c-.646 0-1.17-.521-1.17-1.166 0-.646.524-1.167 1.17-1.167zM35.106 35h8.192c.646 0 1.17.521 1.17 1.166 0 .645-.524 1.167-1.17 1.167h-8.192c-.646 0-1.17-.522-1.17-1.167S34.46 35 35.106 35zm1.51 10.161c-.211-.221-.339-.525-.339-.828 0-.304.128-.608.339-.828.433-.432 1.217-.432 1.662 0 .21.22.339.524.339.828 0 .303-.129.607-.339.828-.223.21-.515.339-.831.339-.316 0-.609-.118-.831-.339zm5.851 0c-.211-.221-.339-.525-.339-.828 0-.304.128-.608.339-.828.433-.432 1.229-.432 1.662 0 .21.22.339.524.339.828 0 .303-.129.607-.339.828-.223.21-.515.339-.831.339-.316 0-.609-.129-.831-.339zm-7.361 6.172h8.192c.646 0 1.17.521 1.17 1.167 0 .645-.524 1.166-1.17 1.166h-8.192c-.646 0-1.17-.521-1.17-1.166 0-.646.524-1.167 1.17-1.167zm8.192-22.167c-.304 0-.609-.128-.831-.338-.211-.221-.339-.525-.339-.828 0-.305.128-.608.339-.829.445-.431 1.217-.431 1.662 0 .222.221.339.524.339.829 0 .303-.117.607-.339.828-.223.21-.527.338-.831.338zm-5.851 0h-8.192c-.646 0-1.17-.521-1.17-1.166 0-.645.524-1.167 1.17-1.167h8.192c.646 0 1.17.522 1.17 1.167s-.524 1.166-1.17 1.166zm-7.022 7c0 .645-.524 1.167-1.17 1.167H17.553c-.646 0-1.17-.522-1.17-1.167S16.907 35 17.553 35h11.702c.646 0 1.17.521 1.17 1.166zm-7.021-7c-.304 0-.608-.128-.831-.338-.21-.221-.339-.525-.339-.828 0-.305.129-.608.339-.829.445-.431 1.229-.431 1.662 0 .211.221.339.524.339.829 0 .303-.128.607-.339.828-.222.21-.527.338-.831.338z"/>
</svg>
