<svg xmlns="http://www.w3.org/2000/svg" width="73" height="70">
    <path fill="#1085E4" fill-rule="evenodd" d="M72.842 53.728c-.613-1.994-1.715-3.806-3.208-5.274-2.377-2.37-5.612-3.699-8.984-3.69-1.723.001-3.428.348-5.013 1.019L43.14 33.391l16.594-16.329 3.929-.111c.476-.014.911-.269 1.153-.675L70.44 6.9c.326-.541.24-1.233-.209-1.679l-4.86-4.82c-.45-.445-1.148-.53-1.694-.206l-9.456 5.576c-.409.241-.666.671-.68 1.143l-.111 3.883-16.552 16.384L25.52 15.919c1.192-6.857-3.447-13.374-10.361-14.557-3.204-.547-6.498.143-9.204 1.931-.636.426-.802 1.282-.373 1.912.121.177.282.323.47.429l6.304 3.483c1.389.785 1.666 3.125.542 5.108-1.125 1.983-3.277 3.002-4.68 2.231l-5.846-3.14c-.672-.366-1.516-.123-1.885.543-.128.229-.187.491-.17.752.44 6.944 6.473 12.22 13.476 11.784 1.447-.09 2.868-.424 4.201-.99l10.331 10.244-4.471 4.433-1.014-.991c-1.122-1.064-2.891-1.064-4.013 0l-1.389 1.377c-1.058 1.022-1.125 2.685-.152 3.787L.859 60.515C-.249 61.567-.288 63.31.772 64.409c.029.029.057.058.087.086l4.693 4.653c1.061 1.099 2.819 1.138 3.927.087.029-.029.058-.057.086-.087L26.006 52.86c1.111.964 2.788.898 3.818-.151l1.389-1.377c1.108-1.052 1.147-2.795.086-3.894-.028-.029-.057-.058-.086-.085l-1.014-1.005 4.444-4.503 13.469 13.356c-1.164 6.861 3.502 13.359 10.422 14.513 4.099.683 8.275-.664 11.184-3.609.51-.567.459-1.438-.114-1.944-.148-.13-.322-.228-.511-.286l-7.818-2.079c-.766-.244-1.372-.83-1.638-1.583-.406-1.039-.455-2.181-.139-3.25.583-2.161 2.43-3.703 3.985-3.29l7.734 2.065c.125.018.251.018.375 0 .767.009 1.396-.6 1.405-1.36.003-.227-.05-.45-.155-.65zM55.749 12.325c.249-.25.394-.584.402-.936l.111-3.676 7.873-4.641 3.333 3.305-4.582 7.793-3.777.137c-.355.009-.693.152-.944.4L41.224 31.491l-2.388-2.368 16.913-16.798zM7.593 67.194L2.83 62.498l16.511-16.33 2.388 2.368 2.277 2.342L7.593 67.194zm20.315-16.523l-1.833-1.831-.708-.703-5.832-5.824 1.388-1.376 8.332 8.371-1.347 1.363zm.264-6.278l-2.389-2.369 4.472-4.433 2.388 2.368-4.471 4.434zm35.991 6.622c-.412-.11-.837-.165-1.263-.165-3.028.242-5.526 2.445-6.124 5.397-.474 1.658-.381 3.425.264 5.026.595 1.54 1.886 2.713 3.485 3.167l5.166 1.377C60.98 68.6 54.886 67.07 52.08 62.399c-1.319-2.193-1.726-4.809-1.136-7.295.106-.462-.036-.946-.375-1.28L19.271 22.761c-.444-.413-1.109-.492-1.638-.192-1.434.75-3.031 1.143-4.652 1.143-4.178.004-7.909-2.59-9.331-6.485l3.166 1.748c.738.41 1.57.624 2.416.62 2.571-.147 4.87-1.635 6.04-3.91 1.888-3.346 1.153-7.325-1.625-8.867l-4.04-2.273c5.163-1.828 10.845.84 12.689 5.96.64 1.777.752 3.699.322 5.537-.106.463.035.946.374 1.281l31.368 31.09c.429.426 1.087.526 1.625.248 1.434-.75 3.03-1.142 4.651-1.143 3.516-.003 6.771 1.841 8.554 4.846l-5.027-1.349z"/>
</svg>
