<svg xmlns="http://www.w3.org/2000/svg" width="70" height="70">
    <path fill="#1085E4" fill-rule="evenodd" d="M67.6 69.999H43.506c-1.323 0-2.4-1.076-2.4-2.399V27.81c0-1.323 1.077-2.4 2.4-2.4H67.6c1.323 0 2.4 1.077 2.4 2.4V67.6c0 1.323-1.077 2.399-2.4 2.399zm.166-42.189c0-.088-.078-.166-.166-.166H43.506c-.088 0-.166.078-.166.166v2.068h24.426V27.81zm0 4.302H43.34v26.717h24.426V32.112zm0 28.952H43.34V67.6c0 .088.078.165.166.165H67.6c.088 0 .166-.077.166-.165v-6.536zm-9.979 4.467h-4.468c-.617 0-1.117-.5-1.117-1.117s.5-1.116 1.117-1.116h4.468c.617 0 1.117.499 1.117 1.116 0 .617-.5 1.117-1.117 1.117zM37.755 38.07H5.585c-.617 0-1.117-.5-1.117-1.117s.5-1.118 1.117-1.118h32.17c.617 0 1.117.501 1.117 1.118 0 .617-.5 1.117-1.117 1.117zm19.809-14.894c-.617 0-1.117-.5-1.117-1.117V2.399c0-.088-.078-.165-.166-.165H2.4c-.088 0-.166.077-.166.165V43.24c0 .089.077.166.166.166h35.355c.617 0 1.117.5 1.117 1.117s-.5 1.117-1.117 1.117h-1.609v6.746h1.609c.617 0 1.117.5 1.117 1.117s-.5 1.117-1.117 1.117H13.946c-.617 0-1.117-.5-1.117-1.117s.5-1.117 1.117-1.117h8.589V45.64H2.4c-1.323 0-2.4-1.076-2.4-2.4V2.399c0-1.323 1.077-2.4 2.4-2.4h53.881c1.323 0 2.4 1.077 2.4 2.4v19.66c0 .617-.5 1.117-1.117 1.117zm-32.795 29.21h9.143V45.64h-9.143v6.746z"/>
</svg>
