<svg xmlns="http://www.w3.org/2000/svg" width="74" height="70">
    <path fill="#1085E4" fill-rule="evenodd" d="M40.568 9.641c-1.19-.264-2.379-.396-3.568-.396-4.823 0-9.382 2.113-12.554 5.745-.264.33-.594.462-.991.462-.33 0-.594-.132-.859-.33-.528-.462-.594-1.321-.132-1.849C26.098 9.047 31.384 6.604 37 6.604c1.387 0 2.775.132 4.162.462.661.198 1.19.924.992 1.584-.199.661-.859 1.124-1.586.991zm22.2 40.547h-4.625c-1.454 0-2.643-1.188-2.643-2.641v-18.49c0-1.454 1.189-2.643 2.643-2.643h2.643C60.786 13.273 50.148 2.641 37 2.641c-13.148 0-23.786 10.632-23.786 23.773h2.643c1.454 0 2.643 1.189 2.643 2.643v18.49c0 1.453-1.189 2.641-2.643 2.641h-.925l3.832 6.01c2.775 4.49 7.598 7.198 12.884 7.198h.925c.595-2.245 2.643-3.962 5.088-3.962 2.907 0 5.285 2.377 5.285 5.283 0 2.906-2.378 5.282-5.285 5.282-2.445 0-4.493-1.716-5.088-3.962h-.925c-6.21 0-11.827-3.103-15.13-8.386l-4.691-7.463h-.595C5.021 50.188 0 45.17 0 38.962v-1.321c0-5.943 4.691-10.83 10.571-11.16v-.067C10.571 11.82 22.398-.001 37-.001c14.602 0 26.429 11.821 26.429 26.482 5.88.33 10.571 5.217 10.571 11.16v1.321c0 6.208-5.022 11.226-11.232 11.226zm-25.107 17.17c1.453 0 2.642-1.189 2.642-2.641 0-1.453-1.189-2.642-2.642-2.642-1.454 0-2.643 1.189-2.643 2.642 0 1.452 1.189 2.641 2.643 2.641zM2.643 37.641v1.321c0 4.754 3.832 8.585 8.589 8.585h4.625v-18.49h-4.625c-4.757 0-8.589 3.83-8.589 8.584zm68.714 0c0-4.754-3.832-8.584-8.589-8.584h-4.625v18.49h4.625c4.757 0 8.589-3.831 8.589-8.585v-1.321zM46.911 9.311c.132.066.33.198.528.33.198.133.397.265.529.33.66.397.859 1.189.528 1.784-.264.462-.66.66-1.123.66-.198 0-.462-.066-.661-.198-.198-.067-.396-.198-.594-.33-.198-.132-.397-.265-.529-.331-.66-.396-.793-1.122-.462-1.782.33-.661 1.189-.859 1.784-.463z"/>
</svg>
